<svg width="37" height="36" viewBox="0 0 37 36" fill="none" xmlns="http://www.w3.org/2000/svg">
<g id="arrow_forward_ios">
<mask id="mask0_4_54" style="mask-type:alpha" maskUnits="userSpaceOnUse" x="0" y="0" width="37" height="36">
<rect id="Bounding box" x="36.5" width="36" height="36" transform="rotate(90 36.5 0)" fill="#D9D9D9"/>
</mask>
<g mask="url(#mask0_4_54)">
<path id="arrow_forward_ios_2" d="M5.1125 10.9875C5.3875 10.6875 5.7315 10.5375 6.1445 10.5375C6.5565 10.5375 6.9125 10.6875 7.2125 10.9875L18.5 22.2375L29.825 10.95C30.1 10.65 30.444 10.5 30.857 10.5C31.269 10.5 31.625 10.6625 31.925 10.9875C32.225 11.2625 32.375 11.6065 32.375 12.0195C32.375 12.4315 32.225 12.7875 31.925 13.0875L19.4375 25.5375C19.3125 25.6875 19.169 25.794 19.007 25.857C18.844 25.919 18.675 25.95 18.5 25.95C18.325 25.95 18.1565 25.919 17.9945 25.857C17.8315 25.794 17.6875 25.6875 17.5625 25.5375L5.075 13.05C4.775 12.775 4.625 12.4375 4.625 12.0375C4.625 11.6375 4.7875 11.2875 5.1125 10.9875Z" fill="#3A3A60"/>
</g>
</g>
</svg>
