<svg width="16" height="16" viewBox="0 0 16 16" fill="none" xmlns="http://www.w3.org/2000/svg">
<mask id="mask0_53_8" style="mask-type:alpha" maskUnits="userSpaceOnUse" x="0" y="0" width="16" height="16">
<rect width="16" height="16" fill="#D9D9D9"/>
</mask>
<g mask="url(#mask0_53_8)">
<path d="M4.88335 13.95C4.75002 13.8278 4.68335 13.6749 4.68335 13.4913C4.68335 13.3082 4.75002 13.15 4.88335 13.0166L9.88335 7.99998L4.86669 2.96665C4.73335 2.84442 4.66669 2.69154 4.66669 2.50798C4.66669 2.32487 4.73891 2.16665 4.88335 2.03331C5.00558 1.89998 5.15846 1.83331 5.34202 1.83331C5.52513 1.83331 5.68335 1.89998 5.81669 2.03331L11.35 7.58331C11.4167 7.63887 11.464 7.70265 11.492 7.77465C11.5196 7.84709 11.5334 7.9222 11.5334 7.99998C11.5334 8.07776 11.5196 8.15265 11.492 8.22465C11.464 8.29709 11.4167 8.36109 11.35 8.41665L5.80002 13.9666C5.6778 14.1 5.5278 14.1666 5.35002 14.1666C5.17224 14.1666 5.01669 14.0944 4.88335 13.95Z" fill="#3A3A60"/>
</g>
</svg>
