<svg width="24" height="24" viewBox="0 0 24 24" fill="none" xmlns="http://www.w3.org/2000/svg">
<path d="M23.0015 8.54728C23.0015 5.5537 21.3284 4.23463 21.3284 4.23463C21.8338 2.85967 21.7889 1.34266 21.203 0C19.5804 0.0106124 18.0134 0.592906 16.7776 1.6445C14.171 0.838778 11.3818 0.838778 8.77519 1.6445C7.53938 0.592956 5.97244 0.0106694 4.34983 0C3.76395 1.34266 3.71904 2.85967 4.22446 4.23463C4.22446 4.23463 2.55128 5.55303 2.55128 8.54728C2.55128 16.483 9.83818 16.319 9.83818 16.319H9.87353C9.32893 16.9068 8.97952 17.6487 8.87322 18.443C8.24001 18.7274 7.55342 18.8736 6.85926 18.8718C5.43749 18.8718 4.68994 17.9608 4.06375 16.9452C3.81008 16.5347 3.4647 16.1886 3.05475 15.934C2.64481 15.6795 2.18144 15.5234 1.70103 15.4781C1.09484 15.4781 0.748068 15.6408 1.21488 16.1103C1.68169 16.5797 2.40724 16.7424 3.0261 18.0629C3.64496 19.3833 4.01039 20.8417 7.21604 20.8417C7.76165 20.8552 8.30668 20.7971 8.8372 20.669V24H16.7216V18.9618C16.7223 17.9808 16.3513 17.036 15.6833 16.3177H15.7186C15.7186 16.3177 23.0015 16.481 23.0015 8.54728Z" fill="#2B274B"/>
</svg>
