<svg width="24" height="24" viewBox="0 0 24 24" fill="none" xmlns="http://www.w3.org/2000/svg">
<path d="M16.2122 24H7.78779C5.72331 23.9968 3.7443 23.1753 2.2845 21.7154C0.824692 20.2556 0.00317368 18.2765 0 16.212V7.78799C0.00317368 5.72346 0.824692 3.7444 2.2845 2.28456C3.7443 0.82471 5.72331 0.00317377 7.78779 0H16.2122C18.2767 0.00317377 20.2557 0.82471 21.7155 2.28456C23.1753 3.7444 23.9968 5.72346 24 7.78799V16.2113C23.997 18.276 23.1756 20.2552 21.7157 21.7152C20.2559 23.1752 18.2768 23.9968 16.2122 24ZM7.78912 2.282C6.32919 2.28359 4.92951 2.86426 3.89718 3.89662C2.86485 4.92897 2.28419 6.32869 2.28261 7.78867V16.212C2.28419 17.672 2.86485 19.0717 3.89718 20.104C4.92951 21.1364 6.32919 21.7171 7.78912 21.7187H16.2122C17.6721 21.7171 19.0718 21.1364 20.1042 20.104C21.1365 19.0717 21.7171 17.672 21.7187 16.212V7.78799C21.7171 6.32802 21.1365 4.92831 20.1042 3.89596C19.0718 2.8636 17.6721 2.28292 16.2122 2.28133L7.78912 2.282Z" fill="#2B274B"/>
<path d="M11.9996 18.1034C10.3816 18.1015 8.83035 17.4578 7.6862 16.3136C6.54206 15.1695 5.89843 13.6182 5.89648 12.0001C5.89843 10.382 6.54206 8.83068 7.6862 7.6865C8.83035 6.54233 10.3816 5.89867 11.9996 5.89673C13.6177 5.89867 15.1689 6.54233 16.3131 7.6865C17.4572 8.83068 18.1009 10.382 18.1028 12.0001C18.1009 13.6182 17.4572 15.1695 16.3131 16.3136C15.1689 17.4578 13.6177 18.1015 11.9996 18.1034ZM11.9996 8.19473C10.991 8.19597 10.024 8.59721 9.31078 9.31046C8.59756 10.0237 8.19632 10.9907 8.19509 11.9994C8.19632 13.0081 8.59756 13.9751 9.31078 14.6883C10.024 15.4016 10.991 15.8028 11.9996 15.8041C13.0084 15.803 13.9756 15.4018 14.6889 14.6886C15.4023 13.9753 15.8036 13.0082 15.8049 11.9994C15.8035 10.9907 15.4021 10.0238 14.6887 9.31065C13.9754 8.59753 13.0083 8.19646 11.9996 8.1954V8.19473Z" fill="#2B274B"/>
<path d="M18.2755 7.28605C19.0358 7.28605 19.6521 6.66969 19.6521 5.90938C19.6521 5.14907 19.0358 4.53271 18.2755 4.53271C17.5152 4.53271 16.8989 5.14907 16.8989 5.90938C16.8989 6.66969 17.5152 7.28605 18.2755 7.28605Z" fill="#2B274B"/>
</svg>
