<svg width="19" height="20" viewBox="0 0 19 20" fill="none" xmlns="http://www.w3.org/2000/svg">
<g id="2023 NEW LOGO 2" clip-path="url(#clip0_15_170)">
<g id="Clip path group">
<mask id="mask0_15_170" style="mask-type:luminance" maskUnits="userSpaceOnUse" x="0" y="0" width="19" height="20">
<g id="clip0_162_16">
<path id="Vector" d="M18.9662 0H0V20H18.9662V0Z" fill="white"/>
</g>
</mask>
<g mask="url(#mask0_15_170)">
<g id="Group">
<path id="Vector_2" d="M18.9662 5.56692C18.1181 4.99833 17.0978 4.66667 16 4.66667C13.0545 4.66667 10.6667 7.05447 10.6667 10C10.6667 12.9455 13.0545 15.3333 16 15.3333C17.0978 15.3333 18.1181 15.0017 18.9662 14.4331C17.332 17.7319 13.9309 20 10 20C4.47715 20 0 15.5229 0 10C0 4.47715 4.47715 0 10 0C13.9309 0 17.332 2.26805 18.9662 5.56692Z" fill="#FAFAFF"/>
<path id="Vector_3" d="M16 4.66667C17.0978 4.66667 18.1181 4.99833 18.9662 5.56693C18.9649 5.5643 18.9636 5.56167 18.9623 5.55905C17.222 4.32522 15.0957 3.60001 12.8 3.60001C6.90896 3.60001 2.13336 8.37561 2.13336 14.2667C2.13336 15.0145 2.21028 15.7442 2.3567 16.4486C4.19108 18.6206 6.93449 20 10 20C13.9309 20 17.332 17.7319 18.9662 14.4331C18.1181 15.0017 17.0978 15.3333 16 15.3333C13.0545 15.3333 10.6667 12.9455 10.6667 10C10.6667 7.05447 13.0545 4.66667 16 4.66667Z" fill="#FAFAFF"/>
<path id="Vector_4" d="M18.1694 5.12636C17.5066 4.83091 16.7724 4.66668 16 4.66668C13.0544 4.66668 10.6666 7.05448 10.6666 10C10.6666 12.9455 13.0544 15.3333 16 15.3333C17.0977 15.3333 18.118 15.0017 18.9662 14.4331C17.332 17.7319 13.9308 20 9.99998 20C9.76784 20 9.53758 19.9921 9.30944 19.9765C7.06684 18.4101 5.59998 15.8097 5.59998 12.8667C5.59998 8.08021 9.48018 4.20001 14.2666 4.20001C15.6705 4.20001 16.9964 4.53381 18.1694 5.12636Z" fill="#FAFAFF"/>
</g>
</g>
</g>
</g>
<defs>
<clipPath id="clip0_15_170">
<rect width="19" height="20" fill="white"/>
</clipPath>
</defs>
</svg>
