<svg width="211" height="196" viewBox="0 0 211 196" fill="none" xmlns="http://www.w3.org/2000/svg">
<g opacity="1">
<mask id="mask0_716_5" style="mask-type:alpha" maskUnits="userSpaceOnUse" x="0" y="-1" width="211" height="211">
<rect y="-1" width="211" height="211" fill="#D9D9D9"/>
</mask>
<g mask="url(#mask0_716_5)">
<path d="M65.7156 179.229C53.5538 179.229 43.2236 174.98 34.725 166.481C26.2264 157.983 21.9771 147.653 21.9771 135.491C21.9771 123.915 25.9333 113.913 33.8458 105.485C41.7583 97.0625 51.5757 92.5582 63.2979 91.9721C63.884 91.9721 64.4349 92.0072 64.9507 92.0776C65.4606 92.1538 66.0086 92.2651 66.5948 92.4117L40.2198 39.2221C38.901 36.5846 39.0124 34.0203 40.5538 31.5294C42.0895 29.0384 44.3225 27.7929 47.2531 27.7929H76.4854C79.5625 27.7929 82.3084 28.5607 84.7232 30.0963C87.1438 31.6378 89.0868 33.8005 90.5521 36.5846L105.498 66.2565L120.444 36.5846C121.909 33.8005 123.852 31.6378 126.273 30.0963C128.687 28.5607 131.433 27.7929 134.51 27.7929H163.523C166.6 27.7929 168.909 29.0384 170.451 31.5294C171.986 34.0203 172.095 36.5846 170.776 39.2221L144.621 91.7523C145.06 91.6058 145.538 91.5325 146.054 91.5325H147.698C159.42 92.2651 169.237 96.8075 177.15 105.16C185.062 113.512 189.019 123.549 189.019 135.271C189.019 147.579 184.769 157.983 176.271 166.481C167.772 174.98 157.369 179.229 145.06 179.229C143.595 179.229 142.095 179.156 140.559 179.01C139.018 178.863 137.514 178.57 136.049 178.13C143.522 174.028 149.09 168.055 152.753 160.213C156.416 152.377 158.248 144.063 158.248 135.271C158.248 120.472 153.155 107.982 142.968 97.801C132.787 87.6143 120.297 82.521 105.498 82.521C90.6986 82.521 78.2056 87.6143 68.019 97.801C57.8383 107.982 52.7479 120.472 52.7479 135.271C52.7479 144.209 54.433 152.746 57.8031 160.881C61.1732 169.011 66.8878 174.76 74.9468 178.13C73.335 178.57 71.7965 178.863 70.3312 179.01C68.8659 179.156 67.3274 179.229 65.7156 179.229ZM105.498 174.834C94.5083 174.834 85.1657 170.989 77.4701 163.299C69.7803 155.603 65.9354 146.261 65.9354 135.271C65.9354 124.281 69.7803 114.939 77.4701 107.243C85.1657 99.5534 94.5083 95.7085 105.498 95.7085C116.487 95.7085 125.83 99.5534 133.526 107.243C141.215 114.939 145.06 124.281 145.06 135.271C145.06 146.261 141.215 155.603 133.526 163.299C125.83 170.989 116.487 174.834 105.498 174.834ZM98.6843 142.085L103.74 153.294C104.179 154.173 104.8 154.613 105.603 154.613C106.412 154.613 106.963 154.173 107.256 153.294L112.311 142.085L123.521 137.029C124.4 136.59 124.84 135.969 124.84 135.166C124.84 134.357 124.4 133.806 123.521 133.513L112.311 128.458L107.256 117.248C106.817 116.369 106.195 115.929 105.392 115.929C104.584 115.929 104.033 116.369 103.74 117.248L98.6843 128.458L87.475 133.513C86.5958 133.952 86.1562 134.574 86.1562 135.377C86.1562 136.185 86.5958 136.736 87.475 137.029L98.6843 142.085Z" fill="#3A3A60"/>
</g>
</g>
</svg>
