<svg width="24" height="24" viewBox="0 0 24 24" fill="none" xmlns="http://www.w3.org/2000/svg">
<path d="M22.396 4.50305C21.3093 3.61572 18.3853 3.66706 12 3.66706C5.61467 3.66706 2.69067 3.61572 1.604 4.50305C0.517332 5.39039 0 6.81772 0 12.0004C0 17.1831 0.517332 18.6097 1.604 19.4971C2.69067 20.3844 5.614 20.3331 12 20.3331C18.386 20.3331 21.3093 20.3844 22.396 19.4971C23.4827 18.6097 24 17.1824 24 12.0004C24 6.81839 23.4827 5.39039 22.396 4.50305ZM9.43067 14.2451V9.10772C9.43128 8.97953 9.46516 8.8537 9.52898 8.74253C9.5928 8.63135 9.68439 8.53865 9.79478 8.47347C9.90516 8.4083 10.0306 8.3729 10.1587 8.37072C10.2869 8.36854 10.4135 8.39967 10.526 8.46105L15.2627 11.0297C15.3796 11.0924 15.4773 11.1856 15.5454 11.2994C15.6136 11.4132 15.6495 11.5434 15.6495 11.6761C15.6495 11.8087 15.6136 11.9389 15.5454 12.0527C15.4773 12.1665 15.3796 12.2597 15.2627 12.3224L10.526 14.8911C10.4135 14.9524 10.287 14.9835 10.1589 14.9814C10.0308 14.9793 9.90543 14.9439 9.79506 14.8788C9.68469 14.8137 9.5931 14.7211 9.52923 14.61C9.46536 14.4989 9.4314 14.3732 9.43067 14.2451Z" fill="#2B274B"/>
</svg>
