<svg width="140" height="140" viewBox="0 0 140 140" fill="none" xmlns="http://www.w3.org/2000/svg">
<rect width="140" height="140" rx="20" fill="#FAFAFF"/>
<rect x="0.5" y="0.5" width="139" height="139" rx="19.5" stroke="#3A3A60" stroke-opacity="0.1"/>
<mask id="mask0_766_13" style="mask-type:luminance" maskUnits="userSpaceOnUse" x="27" y="25" width="86" height="90">
<path d="M112.348 25H27V115H112.348V25Z" fill="white"/>
</mask>
<g mask="url(#mask0_766_13)">
<path d="M112.348 50.0511C108.531 47.4925 103.94 46 99 46C85.7451 46 75 56.7451 75 70C75 83.2549 85.7451 94 99 94C103.94 94 108.531 92.5075 112.348 89.9488C104.994 104.794 89.6889 115 72 115C47.1472 115 27 94.8529 27 70C27 45.1472 47.1472 25 72 25C89.6889 25 104.994 35.2062 112.348 50.0511Z" fill="#907FDF"/>
<path d="M99 46.0001C103.94 46.0001 108.531 47.4925 112.348 50.0512C112.342 50.0394 112.336 50.0276 112.33 50.0158C104.499 44.4635 94.9305 41.2001 84.6 41.2001C58.0902 41.2001 36.6 62.6903 36.6 89.2001C36.6 92.5652 36.9461 95.849 37.605 99.0188C45.8597 108.793 58.2051 115 72 115C89.6889 115 104.994 104.794 112.348 89.9489C108.531 92.5076 103.94 94.0001 99 94.0001C85.7451 94.0001 75 83.255 75 70.0001C75 56.7452 85.7451 46.0001 99 46.0001Z" fill="#524B9B"/>
<path d="M108.762 48.0686C105.78 46.739 102.476 46 99.0001 46C85.7452 46 75.0001 56.7451 75.0001 70C75.0001 83.2549 85.7452 94 99.0001 94C103.94 94 108.531 92.5075 112.348 89.9488C104.994 104.794 89.689 115 72.0001 115C70.9555 115 69.9193 114.964 68.8927 114.894C58.801 107.845 52.2001 96.1435 52.2001 82.9C52.2001 61.3609 69.661 43.9 91.2001 43.9C97.5175 43.9 103.484 45.4021 108.762 48.0686Z" fill="#3A3A60"/>
</g>
</svg>
