<svg width="400" height="160" viewBox="0 0 400 160" fill="none" xmlns="http://www.w3.org/2000/svg">
<rect width="400" height="160" fill="#FAFAFF"/>
<mask id="mask0_766_15" style="mask-type:luminance" maskUnits="userSpaceOnUse" x="157" y="35" width="86" height="90">
<path d="M242.348 35H157V125H242.348V35Z" fill="white"/>
</mask>
<g mask="url(#mask0_766_15)">
<path d="M242.348 60.0511C238.531 57.4925 233.94 56 229 56C215.745 56 205 66.7451 205 80C205 93.2549 215.745 104 229 104C233.94 104 238.531 102.508 242.348 99.9488C234.994 114.794 219.689 125 202 125C177.147 125 157 104.853 157 80C157 55.1472 177.147 35 202 35C219.689 35 234.994 45.2062 242.348 60.0511Z" fill="#907FDF"/>
<path d="M229 56.0001C233.94 56.0001 238.531 57.4925 242.348 60.0512C242.342 60.0394 242.336 60.0276 242.33 60.0158C234.499 54.4635 224.93 51.2001 214.6 51.2001C188.09 51.2001 166.6 72.6903 166.6 99.2001C166.6 102.565 166.946 105.849 167.605 109.019C175.86 118.793 188.205 125 202 125C219.689 125 234.994 114.794 242.348 99.9489C238.531 102.508 233.94 104 229 104C215.745 104 205 93.255 205 80.0001C205 66.7452 215.745 56.0001 229 56.0001Z" fill="#524B9B"/>
<path d="M238.762 58.0686C235.78 56.739 232.476 56 229 56C215.745 56 205 66.7451 205 80C205 93.2549 215.745 104 229 104C233.94 104 238.531 102.508 242.348 99.9488C234.994 114.794 219.689 125 202 125C200.955 125 199.919 124.964 198.893 124.894C188.801 117.845 182.2 106.144 182.2 92.9C182.2 71.3609 199.661 53.9 221.2 53.9C227.517 53.9 233.484 55.4021 238.762 58.0686Z" fill="#3A3A60"/>
</g>
</svg>
